<svg width="18" height="24" viewBox="0 0 18 24" fill="none" xmlns="http://www.w3.org/2000/svg">
<path d="M0 24V2.50219C0 1.7889 0.2315 1.19381 0.6945 0.716903C1.1575 0.24 1.734 0.00103226 2.424 0H15.5775C16.2675 0 16.844 0.238967 17.307 0.716903C17.77 1.19484 18.001 1.78994 18 2.50219V24L9 20.0098L0 24ZM1.5 21.6L9 18.271L16.5 21.6V2.50219C16.5 2.26374 16.404 2.0449 16.212 1.84568C16.02 1.64645 15.808 1.54735 15.576 1.54839H2.424C2.193 1.54839 1.981 1.64748 1.788 1.84568C1.595 2.04387 1.499 2.26271 1.5 2.50219V21.6Z" fill="#F7F4EF"/>
</svg>
