<svg width="28" height="26" viewBox="0 0 28 26" fill="none" xmlns="http://www.w3.org/2000/svg">
<path d="M18 16.9764L26 24.2613M11.3333 19.4047C10.1077 19.4047 8.89399 19.1849 7.76162 18.7578C6.62925 18.3307 5.60035 17.7046 4.73367 16.9154C3.86699 16.1262 3.1795 15.1893 2.71046 14.1582C2.24141 13.127 2 12.0218 2 10.9057C2 9.78963 2.24141 8.68445 2.71046 7.65331C3.1795 6.62216 3.86699 5.68524 4.73367 4.89604C5.60035 4.10683 6.62925 3.4808 7.76162 3.05369C8.89399 2.62657 10.1077 2.40674 11.3333 2.40674C13.8087 2.40674 16.1827 3.30217 17.933 4.89604C19.6833 6.48991 20.6667 8.65166 20.6667 10.9057C20.6667 13.1598 19.6833 15.3216 17.933 16.9154C16.1827 18.5093 13.8087 19.4047 11.3333 19.4047Z" stroke="#AB3130" stroke-width="3" stroke-linecap="round" stroke-linejoin="round"/>
</svg>
