<svg width="272" height="668" viewBox="0 0 272 668" fill="none" xmlns="http://www.w3.org/2000/svg">
<path d="M114.166 389.897C100.251 389.897 87.1796 387.157 74.9512 381.675C62.9337 376.193 52.2867 368.709 43.01 359.221C33.9442 349.734 26.7758 338.77 21.505 326.331C16.445 313.681 13.915 300.293 13.915 286.168C13.915 271.198 16.5504 257.178 21.8212 244.106C27.0921 230.824 34.4712 219.228 43.9587 209.319C53.4462 199.199 64.4096 191.293 76.8487 185.6C89.4987 179.908 103.097 177.061 117.645 177.061C130.084 177.061 142.734 177.694 155.595 178.959C168.456 180.224 181.422 182.227 194.494 184.968L193.861 230.508C193.861 233.67 191.647 235.251 187.22 235.251C185.112 235.251 183.741 234.724 183.109 233.67C182.476 230.929 181.633 228.188 180.579 225.448C179.735 222.496 177.838 218.701 174.886 214.063C169.826 206.683 162.552 200.885 153.065 196.669C143.788 192.452 132.298 190.344 118.594 190.344C108.263 190.344 98.5646 192.874 89.4987 197.934C80.4329 202.783 72.4212 209.424 65.4637 217.858C58.7171 226.291 53.4462 235.884 49.6512 246.636C45.8562 257.178 43.9587 268.141 43.9587 279.526C43.9587 297.025 46.9104 312.733 52.8137 326.648C58.7171 340.984 67.9937 352.896 80.6437 362.384C93.5046 371.66 108.685 376.299 126.184 376.299C147.056 376.299 163.185 370.185 174.57 357.956C177.943 354.372 180.579 350.155 182.476 345.306C184.374 340.457 185.85 336.24 186.904 332.656C187.958 329.072 189.012 327.28 190.066 327.28C191.331 327.28 192.807 327.491 194.494 327.913C196.391 328.123 197.867 328.545 198.921 329.178L200.502 330.126C200.502 331.391 200.081 334.343 199.237 338.981C198.394 343.62 197.34 348.785 196.075 354.478C194.81 359.959 193.545 364.808 192.28 369.025C191.226 373.242 190.382 375.561 189.75 375.983C174.148 385.259 148.954 389.897 114.166 389.897Z" fill="#AB3130"/>
<path d="M157.834 474.231C171.749 474.231 184.82 471.49 197.049 466.008C209.066 460.527 219.713 453.042 228.99 443.555C238.056 434.067 245.224 423.104 250.495 410.665C255.555 398.015 258.085 384.627 258.085 370.501C258.085 355.532 255.45 341.511 250.179 328.44C244.908 315.157 237.529 303.561 228.041 293.652C218.554 283.532 207.59 275.626 195.151 269.933C182.501 264.241 168.903 261.395 154.355 261.395C141.916 261.395 129.266 262.027 116.405 263.292C103.544 264.557 90.5779 266.56 77.5063 269.301L78.1388 314.841C78.1388 318.003 80.3525 319.585 84.78 319.585C86.8883 319.585 88.2588 319.058 88.8913 318.003C89.5238 315.263 90.3671 312.522 91.4213 309.781C92.2646 306.829 94.1621 303.034 97.1138 298.396C102.174 291.017 109.448 285.219 118.935 281.002C128.212 276.786 139.702 274.677 153.406 274.677C163.737 274.677 173.435 277.207 182.501 282.267C191.567 287.116 199.579 293.758 206.536 302.191C213.283 310.624 218.554 320.217 222.349 330.97C226.144 341.511 228.041 352.475 228.041 363.86C228.041 381.359 225.09 397.066 219.186 410.981C213.283 425.318 204.006 437.23 191.356 446.717C178.495 455.994 163.315 460.632 145.816 460.632C124.944 460.632 108.815 454.518 97.43 442.29C94.0567 438.706 91.4213 434.489 89.5238 429.64C87.6263 424.791 86.1504 420.574 85.0963 416.99C84.0421 413.406 82.9879 411.613 81.9338 411.613C80.6688 411.613 79.1929 411.824 77.5063 412.246C75.6088 412.457 74.1329 412.878 73.0788 413.511L71.4975 414.46C71.4975 415.725 71.9192 418.676 72.7625 423.315C73.6058 427.953 74.66 433.118 75.925 438.811C77.19 444.293 78.455 449.142 79.72 453.358C80.7742 457.575 81.6175 459.894 82.25 460.316C97.8517 469.593 123.046 474.231 157.834 474.231Z" fill="#AB3130"/>
<path d="M144 129.873C144 128.942 144.755 128.187 145.687 128.187H189.54C190.472 128.187 191.227 128.942 191.227 129.873V175.107C191.227 176.15 190.294 176.945 189.265 176.778C185.023 176.09 174.799 174.479 167.613 173.727C160.211 172.951 149.585 172.339 145.595 172.124C144.697 172.075 144 171.334 144 170.435V129.873Z" fill="#AB3130"/>
<path d="M182.794 104.573C183.725 104.573 184.48 105.328 184.48 106.26V123.127C184.48 124.058 183.728 124.813 182.797 124.813H152.433C151.501 124.813 150.747 124.058 150.747 123.127V106.26C150.747 105.328 151.502 104.573 152.434 104.573H182.794ZM167.613 107.946C165.75 107.947 164.24 109.457 164.24 111.32C164.24 113.183 165.751 114.693 167.613 114.693C169.476 114.693 170.987 113.183 170.987 111.32C170.987 109.457 169.476 107.946 167.613 107.946Z" fill="#AB3130"/>
</svg>
