<svg width="32" height="32" viewBox="0 0 32 32" fill="none" xmlns="http://www.w3.org/2000/svg">
<path d="M16.9444 4.84741C16.6944 4.59745 16.3553 4.45703 16.0018 4.45703C15.6482 4.45703 15.3091 4.59745 15.0591 4.84741L7.51643 12.3901C7.38908 12.5131 7.2875 12.6602 7.21762 12.8229C7.14775 12.9855 7.11096 13.1605 7.10943 13.3375C7.10789 13.5146 7.14162 13.6902 7.20866 13.854C7.27571 14.0179 7.37471 14.1667 7.4999 14.2919C7.62509 14.4171 7.77396 14.5161 7.93782 14.5832C8.10168 14.6502 8.27726 14.684 8.45429 14.6824C8.63133 14.6809 8.80629 14.6441 8.96897 14.5742C9.13164 14.5043 9.27876 14.4028 9.40176 14.2754L14.6684 9.00875V26.6661C14.6684 27.0197 14.8089 27.3588 15.059 27.6089C15.309 27.8589 15.6481 27.9994 16.0018 27.9994C16.3554 27.9994 16.6945 27.8589 16.9446 27.6089C17.1946 27.3588 17.3351 27.0197 17.3351 26.6661V9.00875L22.6018 14.2754C22.8532 14.5183 23.19 14.6527 23.5396 14.6496C23.8892 14.6466 24.2236 14.5064 24.4709 14.2592C24.7181 14.012 24.8583 13.6775 24.8613 13.3279C24.8644 12.9784 24.73 12.6416 24.4871 12.3901L16.9444 4.84741Z" fill="#F7F4EF"/>
</svg>
