<svg width="22" height="28" viewBox="0 0 22 28" fill="none" xmlns="http://www.w3.org/2000/svg">
<path d="M0 27.9109V3.2371C0 2.41843 0.282944 1.73541 0.848833 1.18805C1.41472 0.640691 2.11933 0.366419 2.96267 0.365234H19.0392C19.8825 0.365234 20.5871 0.639506 21.153 1.18805C21.7189 1.7366 22.0012 2.41961 22 3.2371V27.9109L11 23.3312L0 27.9109ZM1.83333 25.1564L11 21.3355L20.1667 25.1564V3.2371C20.1667 2.96342 20.0493 2.71225 19.8147 2.48359C19.58 2.25493 19.3209 2.14119 19.0373 2.14238H2.96267C2.68033 2.14238 2.42122 2.25611 2.18533 2.48359C1.94944 2.71106 1.83211 2.96223 1.83333 3.2371V25.1564Z" fill="#AB3130"/>
</svg>
