<svg width="32" height="32" viewBox="0 0 32 32" fill="none" xmlns="http://www.w3.org/2000/svg">
<path d="M9.625 18.375L14 23.625L20.125 15.75L28 26.25H3.5M31.5 28V3.5C31.5 2.57174 31.1313 1.6815 30.4749 1.02513C29.8185 0.368749 28.9283 0 28 0H3.5C2.57174 0 1.6815 0.368749 1.02513 1.02513C0.368749 1.6815 0 2.57174 0 3.5V28C0 28.9283 0.368749 29.8185 1.02513 30.4749C1.6815 31.1313 2.57174 31.5 3.5 31.5H28C28.9283 31.5 29.8185 31.1313 30.4749 30.4749C31.1313 29.8185 31.5 28.9283 31.5 28Z" fill="#AB3130"/>
</svg>
