<svg width="177" height="63" viewBox="0 0 177 63" fill="none" xmlns="http://www.w3.org/2000/svg">
<path d="M47.7849 38.2942C46.4678 38.2942 45.2306 38.0348 44.0731 37.5159C42.9356 36.9971 41.9278 36.2887 41.0498 35.3906C40.1717 34.4926 39.4832 33.4549 38.9843 32.2775C38.5054 31.0802 38.2659 29.813 38.2659 28.4759C38.2659 27.059 38.5154 25.732 39.0143 24.4947C39.5132 23.2375 40.2116 22.1399 41.1096 21.202C42.0077 20.2441 43.0554 19.4957 44.2527 18.9569C45.4501 18.4181 46.7372 18.1487 48.1142 18.1487C50.3692 18.1487 52.724 18.4181 55.1786 18.9569C55.2185 18.9569 55.2484 19.1565 55.2684 19.5556C55.3083 19.9348 55.3382 20.3937 55.3582 20.9326C55.3781 21.4514 55.3981 21.9403 55.4181 22.3993C55.438 22.8583 55.448 23.1676 55.448 23.3273C55.448 23.6266 55.2085 23.7763 54.7296 23.7763C54.5899 23.7763 54.4502 23.7364 54.3105 23.6565C54.2307 23.2973 54.081 22.9281 53.8615 22.549C53.6619 22.1698 53.3526 21.7408 52.9335 21.2618C52.5145 20.7829 51.8958 20.3937 51.0776 20.0944C50.2594 19.7751 49.3115 19.6155 48.2339 19.6155C46.9368 19.6155 45.8193 19.9946 44.8813 20.753C43.9633 21.4913 43.2549 22.4791 42.756 23.7164C42.2771 24.9537 42.0376 26.3306 42.0376 27.8473C42.0376 29.5236 42.307 31.0402 42.8458 32.3972C43.4046 33.7542 44.2128 34.8418 45.2705 35.66C46.3281 36.4583 47.5953 36.8574 49.0721 36.8574C50.8282 36.8574 52.2351 36.2986 53.2928 35.1811C53.612 34.8418 53.8515 34.4627 54.0112 34.0436C54.1908 33.6046 54.3305 33.2254 54.4302 32.9061C54.53 32.5669 54.6198 32.3972 54.6996 32.3972C55.3981 32.3972 55.7872 32.487 55.8671 32.6667C55.8671 32.7864 55.8172 33.0757 55.7174 33.5347C55.6376 33.9738 55.5378 34.4627 55.4181 35.0015C55.2983 35.5204 55.1686 35.9793 55.0289 36.3785C54.9092 36.7776 54.8094 36.9971 54.7296 37.037C52.9934 37.8752 50.6785 38.2942 47.7849 38.2942ZM57.5434 38.2044C57.4635 38.1246 57.4236 37.9849 57.4236 37.7854C57.4236 37.4062 57.4635 37.2166 57.5434 37.2166C57.703 37.2166 57.9325 37.1867 58.2318 37.1268C58.5312 37.0669 58.8106 36.9871 59.07 36.8873C59.3294 36.7676 59.4791 36.6578 59.519 36.5581C59.5988 36.2388 59.6587 35.8696 59.6986 35.4505C59.7385 35.0314 59.7585 34.5625 59.7585 34.0436V22.4891C59.7585 21.3317 59.6787 20.4935 59.519 19.9747C59.4791 19.8549 59.3294 19.7452 59.07 19.6454C58.8305 19.5456 58.5611 19.4658 58.2618 19.4059C57.9824 19.3261 57.7629 19.2862 57.6032 19.2862C57.5234 19.2862 57.4835 19.1365 57.4835 18.8372C57.4835 18.5179 57.5035 18.3383 57.5434 18.2984L59.2197 18.3882C60.2175 18.448 60.9858 18.478 61.5246 18.478L65.3561 18.2984C65.416 18.478 65.4459 18.6376 65.4459 18.7773C65.4459 19.1166 65.406 19.2862 65.3262 19.2862C65.2065 19.2862 64.9969 19.3261 64.6976 19.4059C64.3982 19.4857 64.1089 19.5756 63.8295 19.6753C63.5701 19.7751 63.4204 19.8749 63.3805 19.9747C63.3007 20.294 63.2408 20.6731 63.2009 21.1122C63.161 21.5312 63.141 22.0301 63.141 22.6089V26.9792L63.2009 27.069C64.1787 27.089 65.0069 27.1089 65.6854 27.1289C66.3639 27.1289 66.8927 27.1289 67.2719 27.1289C67.691 27.1289 68.2298 27.1289 68.8883 27.1289C69.5469 27.1089 70.3252 27.089 71.2232 27.069C71.2631 27.0291 71.283 26.9892 71.283 26.9493V22.4891C71.283 21.3317 71.2032 20.4935 71.0436 19.9747C71.0037 19.8549 70.854 19.7452 70.5946 19.6454C70.3551 19.5456 70.0857 19.4658 69.7863 19.4059C69.507 19.3261 69.2874 19.2862 69.1278 19.2862C69.048 19.2862 69.0081 19.1365 69.0081 18.8372C69.0081 18.5179 69.028 18.3383 69.0679 18.2984L70.7442 18.3882C71.742 18.448 72.5103 18.478 73.0491 18.478L76.8807 18.2984C76.9405 18.478 76.9705 18.6376 76.9705 18.7773C76.9705 19.1166 76.9306 19.2862 76.8507 19.2862C76.731 19.2862 76.5215 19.3261 76.2221 19.4059C75.9228 19.4857 75.6334 19.5756 75.3541 19.6753C75.0946 19.7751 74.945 19.8749 74.905 19.9747C74.8252 20.294 74.7653 20.6731 74.7254 21.1122C74.6855 21.5312 74.6656 22.0301 74.6656 22.6089V33.864C74.6656 34.9616 74.7554 35.8596 74.935 36.5581C74.9749 36.6379 75.1146 36.7377 75.3541 36.8574C75.6135 36.9572 75.8829 37.047 76.1623 37.1268C76.4616 37.1867 76.6711 37.2166 76.7909 37.2166C76.8707 37.2166 76.9106 37.4062 76.9106 37.7854C76.9106 37.9051 76.8907 38.0448 76.8507 38.2044L73.0491 38.0248C72.3507 38.0248 71.6323 38.0448 70.8939 38.0847C70.1555 38.1246 69.5469 38.1645 69.0679 38.2044C68.9881 38.1246 68.9482 37.9849 68.9482 37.7854C68.9482 37.4062 68.9881 37.2166 69.0679 37.2166C69.2276 37.2166 69.4571 37.1867 69.7564 37.1268C70.0557 37.0669 70.3351 36.9871 70.5946 36.8873C70.854 36.7676 71.0037 36.6578 71.0436 36.5581C71.1234 36.2388 71.1833 35.8696 71.2232 35.4505C71.2631 35.0314 71.283 34.5625 71.283 34.0436V28.895L71.2232 28.7752C70.2852 28.7553 69.487 28.7453 68.8285 28.7453C68.1699 28.7254 67.6511 28.7154 67.2719 28.7154C64.518 28.7353 63.141 28.7852 63.141 28.865V33.864C63.141 34.9616 63.2308 35.8596 63.4104 36.5581C63.4503 36.6379 63.59 36.7377 63.8295 36.8574C64.0889 36.9572 64.3583 37.047 64.6377 37.1268C64.937 37.1867 65.1466 37.2166 65.2663 37.2166C65.3461 37.2166 65.3861 37.4062 65.3861 37.7854C65.3861 37.9051 65.3661 38.0448 65.3262 38.2044L61.5246 38.0248C60.8261 38.0248 60.1077 38.0448 59.3693 38.0847C58.631 38.1246 58.0223 38.1645 57.5434 38.2044ZM78.7366 38.2044C78.6568 38.1246 78.6168 37.9849 78.6168 37.7854C78.6168 37.4062 78.6568 37.2166 78.7366 37.2166C78.8962 37.2166 79.1257 37.1867 79.4251 37.1268C79.7244 37.0669 80.0038 36.9871 80.2632 36.8873C80.5226 36.7676 80.6723 36.6578 80.7122 36.5581C80.792 36.2388 80.8519 35.8696 80.8918 35.4505C80.9317 35.0314 80.9517 34.5625 80.9517 34.0436V22.4891C80.9517 21.3317 80.8719 20.4935 80.7122 19.9747C80.6723 19.8549 80.5226 19.7452 80.2632 19.6454C80.0237 19.5456 79.7543 19.4658 79.455 19.4059C79.1756 19.3261 78.9561 19.2862 78.7965 19.2862C78.7166 19.2862 78.6767 19.1365 78.6767 18.8372C78.6767 18.5179 78.6967 18.3383 78.7366 18.2984L80.4129 18.3882C80.9118 18.4081 81.3508 18.4381 81.73 18.478C82.1291 18.4979 82.4584 18.4979 82.7178 18.478L86.5493 18.2984C86.6092 18.478 86.6391 18.6376 86.6391 18.7773C86.6391 19.1166 86.5992 19.2862 86.5194 19.2862C86.3997 19.2862 86.1901 19.3261 85.8908 19.4059C85.5915 19.4857 85.3021 19.5756 85.0227 19.6753C84.7633 19.7751 84.6136 19.8749 84.5737 19.9747C84.4939 20.294 84.434 20.6731 84.3941 21.1122C84.3542 21.5312 84.3342 22.0301 84.3342 22.6089V33.864C84.3342 34.9616 84.424 35.8596 84.6036 36.5581C84.6435 36.6379 84.7832 36.7377 85.0227 36.8574C85.2821 36.9572 85.5515 37.047 85.8309 37.1268C86.1303 37.1867 86.3398 37.2166 86.4595 37.2166C86.5394 37.2166 86.5793 37.4062 86.5793 37.7854C86.5793 37.9051 86.5593 38.0448 86.5194 38.2044L82.7178 38.0248C82.0193 37.9849 81.3009 37.9949 80.5626 38.0548C79.8242 38.1146 79.2155 38.1645 78.7366 38.2044ZM97.7746 38.2942C96.4575 38.2942 95.2202 38.0348 94.0627 37.5159C92.9253 36.9971 91.9175 36.2887 91.0394 35.3906C90.1614 34.4926 89.4729 33.4549 88.974 32.2775C88.495 31.0802 88.2556 29.813 88.2556 28.4759C88.2556 27.059 88.505 25.732 89.0039 24.4947C89.5028 23.2375 90.2013 22.1399 91.0993 21.202C91.9973 20.2441 93.045 19.4957 94.2424 18.9569C95.4397 18.4181 96.7269 18.1487 98.1038 18.1487C100.359 18.1487 102.714 18.4181 105.168 18.9569C105.208 18.9569 105.238 19.1565 105.258 19.5556C105.298 19.9348 105.328 20.3937 105.348 20.9326C105.368 21.4514 105.388 21.9403 105.408 22.3993C105.428 22.8583 105.438 23.1676 105.438 23.3273C105.438 23.6266 105.198 23.7763 104.719 23.7763C104.58 23.7763 104.44 23.7364 104.3 23.6565C104.22 23.2973 104.071 22.9281 103.851 22.549C103.652 22.1698 103.342 21.7408 102.923 21.2618C102.504 20.7829 101.885 20.3937 101.067 20.0944C100.249 19.7751 99.3012 19.6155 98.2236 19.6155C96.9264 19.6155 95.8089 19.9946 94.871 20.753C93.953 21.4913 93.2446 22.4791 92.7457 23.7164C92.2667 24.9537 92.0272 26.3306 92.0272 27.8473C92.0272 29.5236 92.2966 31.0402 92.8355 32.3972C93.3942 33.7542 94.2024 34.8418 95.2601 35.66C96.3178 36.4583 97.585 36.8574 99.0617 36.8574C100.818 36.8574 102.225 36.2986 103.282 35.1811C103.602 34.8418 103.841 34.4627 104.001 34.0436C104.18 33.6046 104.32 33.2254 104.42 32.9061C104.52 32.5669 104.609 32.3972 104.689 32.3972C105.388 32.3972 105.777 32.487 105.857 32.6667C105.857 32.7864 105.807 33.0757 105.707 33.5347C105.627 33.9738 105.527 34.4627 105.408 35.0015C105.288 35.5204 105.158 35.9793 105.019 36.3785C104.899 36.7776 104.799 36.9971 104.719 37.037C102.983 37.8752 100.668 38.2942 97.7746 38.2942ZM116.902 38.2942C115.585 38.2942 114.348 38.0348 113.191 37.5159C112.053 36.9971 111.045 36.2887 110.167 35.3906C109.289 34.4926 108.601 33.4549 108.102 32.2775C107.623 31.0802 107.383 29.813 107.383 28.4759C107.383 27.059 107.633 25.732 108.132 24.4947C108.631 23.2375 109.329 22.1399 110.227 21.202C111.125 20.2441 112.173 19.4957 113.37 18.9569C114.567 18.4181 115.855 18.1487 117.232 18.1487C119.487 18.1487 121.841 18.4181 124.296 18.9569C124.336 18.9569 124.366 19.1565 124.386 19.5556C124.426 19.9348 124.456 20.3937 124.476 20.9326C124.496 21.4514 124.516 21.9403 124.535 22.3993C124.555 22.8583 124.565 23.1676 124.565 23.3273C124.565 23.6266 124.326 23.7763 123.847 23.7763C123.707 23.7763 123.568 23.7364 123.428 23.6565C123.348 23.2973 123.198 22.9281 122.979 22.549C122.779 22.1698 122.47 21.7408 122.051 21.2618C121.632 20.7829 121.013 20.3937 120.195 20.0944C119.377 19.7751 118.429 19.6155 117.351 19.6155C116.054 19.6155 114.937 19.9946 113.999 20.753C113.081 21.4913 112.372 22.4791 111.873 23.7164C111.394 24.9537 111.155 26.3306 111.155 27.8473C111.155 29.5236 111.424 31.0402 111.963 32.3972C112.522 33.7542 113.33 34.8418 114.388 35.66C115.446 36.4583 116.713 36.8574 118.189 36.8574C119.946 36.8574 121.353 36.2986 122.41 35.1811C122.729 34.8418 122.969 34.4627 123.129 34.0436C123.308 33.6046 123.448 33.2254 123.548 32.9061C123.647 32.5669 123.737 32.3972 123.817 32.3972C124.516 32.3972 124.905 32.487 124.984 32.6667C124.984 32.7864 124.935 33.0757 124.835 33.5347C124.755 33.9738 124.655 34.4627 124.535 35.0015C124.416 35.5204 124.286 35.9793 124.146 36.3785C124.027 36.7776 123.927 36.9971 123.847 37.037C122.111 37.8752 119.796 38.2942 116.902 38.2942ZM126.661 38.2044C126.581 38.1246 126.541 37.9849 126.541 37.7854C126.541 37.4062 126.581 37.2166 126.661 37.2166C126.82 37.2166 127.05 37.1867 127.349 37.1268C127.649 37.0669 127.928 36.9871 128.187 36.8873C128.447 36.7676 128.597 36.6578 128.636 36.5581C128.716 36.2388 128.776 35.8696 128.816 35.4505C128.856 35.0314 128.876 34.5625 128.876 34.0436V22.4891C128.876 21.3317 128.796 20.4935 128.636 19.9747C128.597 19.8549 128.447 19.7452 128.187 19.6454C127.948 19.5456 127.679 19.4658 127.379 19.4059C127.1 19.3261 126.88 19.2862 126.721 19.2862C126.641 19.2862 126.601 19.1365 126.601 18.8372C126.601 18.5179 126.621 18.3383 126.661 18.2984L128.337 18.3882C129.335 18.448 130.103 18.478 130.642 18.478L134.474 18.2984C134.533 18.478 134.563 18.6376 134.563 18.7773C134.563 19.1166 134.523 19.2862 134.444 19.2862C134.324 19.2862 134.114 19.3261 133.815 19.4059C133.516 19.4857 133.226 19.5756 132.947 19.6753C132.687 19.7751 132.538 19.8749 132.498 19.9747C132.418 20.294 132.358 20.6731 132.318 21.1122C132.278 21.5312 132.258 22.0301 132.258 22.6089V26.9792L132.318 27.069C133.296 27.089 134.124 27.1089 134.803 27.1289C135.481 27.1289 136.01 27.1289 136.389 27.1289C136.808 27.1289 137.347 27.1289 138.006 27.1289C138.664 27.1089 139.443 27.089 140.341 27.069C140.381 27.0291 140.4 26.9892 140.4 26.9493V22.4891C140.4 21.3317 140.321 20.4935 140.161 19.9747C140.121 19.8549 139.971 19.7452 139.712 19.6454C139.473 19.5456 139.203 19.4658 138.904 19.4059C138.624 19.3261 138.405 19.2862 138.245 19.2862C138.165 19.2862 138.125 19.1365 138.125 18.8372C138.125 18.5179 138.145 18.3383 138.185 18.2984L139.862 18.3882C140.859 18.448 141.628 18.478 142.167 18.478L145.998 18.2984C146.058 18.478 146.088 18.6376 146.088 18.7773C146.088 19.1166 146.048 19.2862 145.968 19.2862C145.848 19.2862 145.639 19.3261 145.34 19.4059C145.04 19.4857 144.751 19.5756 144.471 19.6753C144.212 19.7751 144.062 19.8749 144.022 19.9747C143.943 20.294 143.883 20.6731 143.843 21.1122C143.803 21.5312 143.783 22.0301 143.783 22.6089V33.864C143.783 34.9616 143.873 35.8596 144.052 36.5581C144.092 36.6379 144.232 36.7377 144.471 36.8574C144.731 36.9572 145 37.047 145.28 37.1268C145.579 37.1867 145.789 37.2166 145.908 37.2166C145.988 37.2166 146.028 37.4062 146.028 37.7854C146.028 37.9051 146.008 38.0448 145.968 38.2044L142.167 38.0248C141.468 38.0248 140.75 38.0448 140.011 38.0847C139.273 38.1246 138.664 38.1645 138.185 38.2044C138.106 38.1246 138.066 37.9849 138.066 37.7854C138.066 37.4062 138.106 37.2166 138.185 37.2166C138.345 37.2166 138.574 37.1867 138.874 37.1268C139.173 37.0669 139.453 36.9871 139.712 36.8873C139.971 36.7676 140.121 36.6578 140.161 36.5581C140.241 36.2388 140.301 35.8696 140.341 35.4505C140.381 35.0314 140.4 34.5625 140.4 34.0436V28.895L140.341 28.7752C139.403 28.7553 138.604 28.7453 137.946 28.7453C137.287 28.7254 136.768 28.7154 136.389 28.7154C133.635 28.7353 132.258 28.7852 132.258 28.865V33.864C132.258 34.9616 132.348 35.8596 132.528 36.5581C132.568 36.6379 132.707 36.7377 132.947 36.8574C133.206 36.9572 133.476 37.047 133.755 37.1268C134.054 37.1867 134.264 37.2166 134.384 37.2166C134.464 37.2166 134.503 37.4062 134.503 37.7854C134.503 37.9051 134.484 38.0448 134.444 38.2044L130.642 38.0248C129.944 38.0248 129.225 38.0448 128.487 38.0847C127.748 38.1246 127.14 38.1645 126.661 38.2044ZM147.854 38.2044C147.774 38.1246 147.734 37.9849 147.734 37.7854C147.734 37.4062 147.774 37.2166 147.854 37.2166C148.014 37.2166 148.243 37.1867 148.542 37.1268C148.842 37.0669 149.121 36.9871 149.381 36.8873C149.64 36.7676 149.79 36.6578 149.83 36.5581C149.909 36.2388 149.969 35.8696 150.009 35.4505C150.049 35.0314 150.069 34.5625 150.069 34.0436V22.4891C150.069 21.3317 149.989 20.4935 149.83 19.9747C149.79 19.8549 149.64 19.7452 149.381 19.6454C149.141 19.5456 148.872 19.4658 148.572 19.4059C148.293 19.3261 148.074 19.2862 147.914 19.2862C147.834 19.2862 147.794 19.1365 147.794 18.8372C147.794 18.5179 147.814 18.3383 147.854 18.2984L149.53 18.3882C150.029 18.4081 150.468 18.4381 150.847 18.478C151.247 18.4979 151.576 18.4979 151.835 18.478L155.667 18.2984C155.727 18.478 155.757 18.6376 155.757 18.7773C155.757 19.1166 155.717 19.2862 155.637 19.2862C155.517 19.2862 155.308 19.3261 155.008 19.4059C154.709 19.4857 154.42 19.5756 154.14 19.6753C153.881 19.7751 153.731 19.8749 153.691 19.9747C153.611 20.294 153.551 20.6731 153.512 21.1122C153.472 21.5312 153.452 22.0301 153.452 22.6089V33.864C153.452 34.9616 153.541 35.8596 153.721 36.5581C153.761 36.6379 153.901 36.7377 154.14 36.8574C154.4 36.9572 154.669 37.047 154.948 37.1268C155.248 37.1867 155.457 37.2166 155.577 37.2166C155.657 37.2166 155.697 37.4062 155.697 37.7854C155.697 37.9051 155.677 38.0448 155.637 38.2044L151.835 38.0248C151.137 37.9849 150.418 37.9949 149.68 38.0548C148.942 38.1146 148.333 38.1645 147.854 38.2044ZM166.892 38.2942C165.575 38.2942 164.338 38.0348 163.18 37.5159C162.043 36.9971 161.035 36.2887 160.157 35.3906C159.279 34.4926 158.59 33.4549 158.091 32.2775C157.612 31.0802 157.373 29.813 157.373 28.4759C157.373 27.059 157.622 25.732 158.121 24.4947C158.62 23.2375 159.319 22.1399 160.217 21.202C161.115 20.2441 162.162 19.4957 163.36 18.9569C164.557 18.4181 165.844 18.1487 167.221 18.1487C169.476 18.1487 171.831 18.4181 174.286 18.9569C174.326 18.9569 174.355 19.1565 174.375 19.5556C174.415 19.9348 174.445 20.3937 174.465 20.9326C174.485 21.4514 174.505 21.9403 174.525 22.3993C174.545 22.8583 174.555 23.1676 174.555 23.3273C174.555 23.6266 174.316 23.7763 173.837 23.7763C173.697 23.7763 173.557 23.7364 173.418 23.6565C173.338 23.2973 173.188 22.9281 172.969 22.549C172.769 22.1698 172.46 21.7408 172.041 21.2618C171.622 20.7829 171.003 20.3937 170.185 20.0944C169.367 19.7751 168.419 19.6155 167.341 19.6155C166.044 19.6155 164.926 19.9946 163.988 20.753C163.07 21.4913 162.362 22.4791 161.863 23.7164C161.384 24.9537 161.145 26.3306 161.145 27.8473C161.145 29.5236 161.414 31.0402 161.953 32.3972C162.512 33.7542 163.32 34.8418 164.378 35.66C165.435 36.4583 166.702 36.8574 168.179 36.8574C169.935 36.8574 171.342 36.2986 172.4 35.1811C172.719 34.8418 172.959 34.4627 173.118 34.0436C173.298 33.6046 173.438 33.2254 173.537 32.9061C173.637 32.5669 173.727 32.3972 173.807 32.3972C174.505 32.3972 174.894 32.487 174.974 32.6667C174.974 32.7864 174.924 33.0757 174.824 33.5347C174.745 33.9738 174.645 34.4627 174.525 35.0015C174.405 35.5204 174.276 35.9793 174.136 36.3785C174.016 36.7776 173.916 36.9971 173.837 37.037C172.1 37.8752 169.786 38.2942 166.892 38.2942Z" fill="#F7F4EF"/>
<path d="M10.7111 37.178C9.40557 37.178 8.17919 36.9209 7.03193 36.4066C5.90444 35.8923 4.90553 35.1901 4.0352 34.3C3.18464 33.4099 2.51211 32.3813 2.0176 31.2142C1.54287 30.0274 1.30551 28.7714 1.30551 27.4461C1.30551 26.0417 1.55276 24.7263 2.04727 23.4999C2.54178 22.2537 3.23409 21.1658 4.12421 20.2361C5.01433 19.2867 6.04291 18.5449 7.20995 18.0108C8.39677 17.4768 9.67261 17.2097 11.0375 17.2097C12.2045 17.2097 13.3913 17.2691 14.5979 17.3878C15.8045 17.5064 17.021 17.6943 18.2474 17.9515L18.1881 22.2241C18.1881 22.5208 17.9804 22.6691 17.565 22.6691C17.3672 22.6691 17.2386 22.6197 17.1793 22.5208C17.1199 22.2636 17.0408 22.0065 16.9419 21.7493C16.8628 21.4724 16.6848 21.1164 16.4078 20.6812C15.9331 19.9889 15.2507 19.4449 14.3606 19.0493C13.4902 18.6537 12.4122 18.4559 11.1265 18.4559C10.1572 18.4559 9.24733 18.6933 8.39677 19.168C7.54622 19.6229 6.79456 20.246 6.14181 21.0372C5.50884 21.8284 5.01433 22.7285 4.65828 23.7373C4.30223 24.7263 4.12421 25.7549 4.12421 26.823C4.12421 28.4648 4.40113 29.9384 4.95499 31.2439C5.50884 32.589 6.37917 33.7066 7.566 34.5967C8.7726 35.467 10.1968 35.9022 11.8386 35.9022C13.7968 35.9022 15.31 35.3286 16.3782 34.1813C16.6946 33.845 16.9419 33.4494 17.1199 32.9945C17.2979 32.5395 17.4364 32.1439 17.5353 31.8076C17.6342 31.4714 17.7331 31.3033 17.832 31.3033C17.9507 31.3033 18.0892 31.323 18.2474 31.3626C18.4254 31.3824 18.5639 31.4219 18.6628 31.4813L18.8111 31.5703C18.8111 31.689 18.7716 31.9659 18.6925 32.4011C18.6133 32.8362 18.5144 33.3208 18.3958 33.8549C18.2771 34.3692 18.1584 34.8242 18.0397 35.2198C17.9408 35.6154 17.8617 35.833 17.8023 35.8725C16.3386 36.7429 13.9748 37.178 10.7111 37.178Z" fill="#F7F4EF"/>
<path d="M14.8065 45.0903C16.112 45.0903 17.3384 44.8331 18.4857 44.3188C19.6131 43.8045 20.612 43.1023 21.4824 42.2122C22.3329 41.3221 23.0055 40.2935 23.5 39.1265C23.9747 37.9396 24.2121 36.6836 24.2121 35.3583C24.2121 33.9539 23.9648 32.6385 23.4703 31.4121C22.9758 30.166 22.2835 29.078 21.3934 28.1484C20.5033 27.1989 19.4747 26.4571 18.3076 25.9231C17.1208 25.389 15.845 25.122 14.4801 25.122C13.3131 25.122 12.1263 25.1813 10.9197 25.3C9.71305 25.4187 8.49656 25.6066 7.27018 25.8637L7.32952 30.1363C7.32952 30.433 7.53721 30.5813 7.9526 30.5813C8.1504 30.5813 8.27898 30.5319 8.33832 30.433C8.39766 30.1758 8.47678 29.9187 8.57568 29.6616C8.6548 29.3846 8.83283 29.0286 9.10975 28.5934C9.58448 27.9011 10.2669 27.3571 11.157 26.9615C12.0274 26.5659 13.1054 26.3681 14.3911 26.3681C15.3604 26.3681 16.2702 26.6055 17.1208 27.0802C17.9714 27.5352 18.723 28.1582 19.3758 28.9495C20.0087 29.7407 20.5033 30.6407 20.8593 31.6495C21.2153 32.6385 21.3934 33.6671 21.3934 34.7352C21.3934 36.377 21.1164 37.8506 20.5626 39.1561C20.0087 40.5012 19.1384 41.6188 17.9516 42.5089C16.745 43.3793 15.3208 43.8144 13.679 43.8144C11.7208 43.8144 10.2076 43.2408 9.13942 42.0935C8.82294 41.7573 8.57568 41.3617 8.39766 40.9067C8.21963 40.4518 8.08117 40.0561 7.98227 39.7199C7.88337 39.3836 7.78447 39.2155 7.68556 39.2155C7.56688 39.2155 7.42842 39.2353 7.27018 39.2748C7.09215 39.2946 6.95369 39.3342 6.85479 39.3935L6.70644 39.4825C6.70644 39.6012 6.746 39.8781 6.82512 40.3133C6.90424 40.7485 7.00314 41.2331 7.12182 41.7672C7.24051 42.2814 7.35919 42.7364 7.47787 43.132C7.57677 43.5276 7.65589 43.7452 7.71523 43.7847C9.17898 44.6551 11.5427 45.0903 14.8065 45.0903Z" fill="#F7F4EF"/>
<path d="M13.5098 12.1846C13.5098 12.0972 13.5806 12.0264 13.668 12.0264H17.7823C17.8697 12.0264 17.9406 12.0972 17.9406 12.1846V16.4285C17.9406 16.5263 17.8531 16.6009 17.7565 16.5852C17.3585 16.5207 16.3993 16.3695 15.7252 16.2989C15.0307 16.2262 14.0338 16.1688 13.6594 16.1485C13.5752 16.144 13.5098 16.0745 13.5098 15.9901V12.1846Z" fill="#F7F4EF"/>
<path d="M17.1514 9.81104C17.2387 9.81112 17.3096 9.8819 17.3096 9.96924V11.5513C17.3096 11.6387 17.2388 11.7095 17.1514 11.7095H14.3027C14.2154 11.7095 14.1445 11.6387 14.1445 11.5513V9.96924C14.1445 9.88188 14.2154 9.81109 14.3027 9.81104H17.1514ZM15.7266 10.1274C15.5518 10.1275 15.4102 10.2691 15.4102 10.4438C15.4102 10.6186 15.5518 10.7602 15.7266 10.7603C15.9014 10.7603 16.043 10.6186 16.043 10.4438C16.0429 10.2691 15.9013 10.1274 15.7266 10.1274Z" fill="#F7F4EF"/>
</svg>
