<svg width="20" height="24" viewBox="0 0 20 24" fill="none" xmlns="http://www.w3.org/2000/svg">
<circle cx="9.94998" cy="5.23709" r="4.56209" stroke="#F7F4EF" stroke-width="1.35"/>
<mask id="path-2-inside-1_239_242" fill="white">
<path d="M9.9502 11.5216C15.4456 11.5216 19.9012 16.9143 19.9014 23.5665H0C0.000192155 16.9145 4.45501 11.5219 9.9502 11.5216Z"/>
</mask>
<path d="M9.9502 11.5216V10.1716H9.95013L9.9502 11.5216ZM19.9014 23.5665V24.9165H21.2514L21.2514 23.5665L19.9014 23.5665ZM0 23.5665L-1.35 23.5665L-1.35004 24.9165H0V23.5665ZM9.9502 11.5216V12.8716C14.4702 12.8716 18.5512 17.4072 18.5514 23.5666L19.9014 23.5665L21.2514 23.5665C21.2512 16.4214 16.4209 10.1716 9.9502 10.1716V11.5216ZM19.9014 23.5665V22.2165H0V23.5665V24.9165H19.9014V23.5665ZM0 23.5665L1.35 23.5666C1.35018 17.4073 5.43045 12.8718 9.95026 12.8716L9.9502 11.5216L9.95013 10.1716C3.47956 10.1719 -1.34979 16.4216 -1.35 23.5665L0 23.5665Z" fill="#F7F4EF" mask="url(#path-2-inside-1_239_242)"/>
</svg>
