<svg width="16" height="16" viewBox="0 0 16 16" fill="none" xmlns="http://www.w3.org/2000/svg">
<path d="M9.84507 10.1048L13.6348 13.8946M6.68697 11.3681C6.10635 11.3681 5.53142 11.2537 4.99499 11.0315C4.45857 10.8093 3.97117 10.4837 3.56061 10.0731C3.15005 9.66254 2.82437 9.17513 2.60218 8.63871C2.37999 8.10229 2.26563 7.52736 2.26562 6.94674C2.26563 6.36612 2.37999 5.79118 2.60218 5.25476C2.82437 4.71834 3.15005 4.23093 3.56061 3.82037C3.97117 3.40981 4.45857 3.08414 4.99499 2.86195C5.53142 2.63975 6.10635 2.52539 6.68697 2.52539C7.85958 2.52539 8.98417 2.99121 9.81333 3.82037C10.6425 4.64954 11.1083 5.77412 11.1083 6.94674C11.1083 8.11935 10.6425 9.24394 9.81333 10.0731C8.98417 10.9023 7.85958 11.3681 6.68697 11.3681Z" stroke="#F7F4EF" stroke-width="1.42106" stroke-linecap="round" stroke-linejoin="round"/>
</svg>
