<svg width="139" height="321" viewBox="0 0 139 321" fill="none" xmlns="http://www.w3.org/2000/svg">
<path d="M55.3909 187.913C48.6982 187.913 42.4111 186.594 36.5297 183.958C30.7496 181.321 25.6287 177.722 21.1669 173.158C16.8066 168.595 13.3588 163.322 10.8237 157.339C8.39 151.255 7.17315 144.816 7.17315 138.022C7.17315 130.822 8.4407 124.079 10.9758 117.792C13.5109 111.403 17.0601 105.826 21.6233 101.06C26.1865 96.1925 31.4595 92.3898 37.4423 89.6519C43.5266 86.914 50.0672 85.545 57.0641 85.545C63.0469 85.545 69.1312 85.8492 75.3168 86.4577C81.5025 87.0661 87.7388 88.0294 94.0259 89.3477L93.7217 111.251C93.7217 112.772 92.6569 113.533 90.5275 113.533C89.5134 113.533 88.8543 113.279 88.5501 112.772C88.2459 111.454 87.8402 110.136 87.3332 108.817C86.9276 107.398 86.015 105.572 84.5953 103.341C82.1616 99.7923 78.6632 97.0037 74.1 94.9756C69.6382 92.9475 64.1116 91.9335 57.5204 91.9335C52.5516 91.9335 47.887 93.1503 43.5266 95.5841C39.1662 97.9163 35.3128 101.111 31.9665 105.167C28.7216 109.223 26.1865 113.837 24.3612 119.008C22.5359 124.079 21.6233 129.352 21.6233 134.828C21.6233 143.244 23.0429 150.799 25.8822 157.491C28.7216 164.387 33.1833 170.116 39.2676 174.679C45.4533 179.141 52.7544 181.372 61.1709 181.372C71.2099 181.372 78.9674 178.431 84.4432 172.55C86.0657 170.826 87.3332 168.798 88.2459 166.466C89.1585 164.133 89.8683 162.105 90.3754 160.381C90.8824 158.658 91.3894 157.796 91.8964 157.796C92.5048 157.796 93.2147 157.897 94.0259 158.1C94.9385 158.201 95.6484 158.404 96.1554 158.708L96.9159 159.165C96.9159 159.773 96.7131 161.193 96.3075 163.424C95.9019 165.654 95.3949 168.139 94.7864 170.877C94.178 173.513 93.5696 175.846 92.9612 177.874C92.4541 179.902 92.0485 181.017 91.7443 181.22C84.2404 185.682 72.1226 187.913 55.3909 187.913Z" fill="#AB3130"/>
<path d="M76.3943 228.474C83.087 228.474 89.374 227.156 95.2555 224.52C101.036 221.883 106.156 218.283 110.618 213.72C114.979 209.157 118.426 203.884 120.961 197.901C123.395 191.817 124.612 185.378 124.612 178.584C124.612 171.384 123.344 164.64 120.809 158.353C118.274 151.965 114.725 146.388 110.162 141.622C105.599 136.754 100.326 132.952 94.3428 130.214C88.2586 127.476 81.718 126.107 74.7211 126.107C68.7383 126.107 62.654 126.411 56.4683 127.019C50.2827 127.628 44.0463 128.591 37.7592 129.909L38.0635 151.813C38.0635 153.334 39.1282 154.094 41.2577 154.094C42.2717 154.094 42.9309 153.841 43.2351 153.334C43.5393 152.016 43.9449 150.697 44.4519 149.379C44.8575 147.959 45.7702 146.134 47.1898 143.903C49.6235 140.354 53.122 137.565 57.6852 135.537C62.147 133.509 67.6735 132.495 74.2648 132.495C79.2336 132.495 83.8982 133.712 88.2586 136.146C92.619 138.478 96.4723 141.672 99.8187 145.729C103.064 149.785 105.599 154.399 107.424 159.57C109.249 164.64 110.162 169.913 110.162 175.389C110.162 183.806 108.742 191.36 105.903 198.053C103.064 204.949 98.6018 210.678 92.5176 215.241C86.3319 219.703 79.0308 221.934 70.6142 221.934C60.5752 221.934 52.8178 218.993 47.342 213.112C45.7195 211.388 44.4519 209.36 43.5393 207.027C42.6267 204.695 41.9168 202.667 41.4098 200.943C40.9028 199.219 40.3958 198.357 39.8887 198.357C39.2803 198.357 38.5705 198.459 37.7592 198.662C36.8466 198.763 36.1368 198.966 35.6298 199.27L34.8692 199.726C34.8692 200.335 35.072 201.754 35.4777 203.985C35.8833 206.216 36.3903 208.701 36.9987 211.438C37.6071 214.075 38.2156 216.407 38.824 218.435C39.331 220.463 39.7366 221.579 40.0408 221.782C47.5448 226.244 59.6626 228.474 76.3943 228.474Z" fill="#AB3130"/>
<path d="M69.7402 62.465C69.7402 62.017 70.1034 61.6538 70.5515 61.6538H91.6436C92.0916 61.6538 92.4548 62.017 92.4548 62.465V84.2212C92.4548 84.7227 92.0064 85.105 91.5113 85.0248C89.4709 84.694 84.5536 83.9191 81.0975 83.5571C77.5373 83.1842 72.4266 82.8899 70.5073 82.7862C70.0756 82.7628 69.7402 82.4064 69.7402 81.9741V62.465Z" fill="#AB3130"/>
<path d="M88.3994 50.2965C88.8474 50.2965 89.2109 50.66 89.2109 51.108V59.2203C89.2108 59.6683 88.8483 60.0309 88.4004 60.0309H73.7969C73.349 60.0308 72.9865 59.6682 72.9863 59.2203V51.108C72.9863 50.6602 73.3491 50.2968 73.7969 50.2965H88.3994ZM81.0986 51.9186C80.2027 51.9187 79.4766 52.6456 79.4766 53.5416C79.4766 54.4375 80.2027 55.1636 81.0986 55.1637C81.9946 55.1637 82.7216 54.4376 82.7217 53.5416C82.7217 52.6456 81.9947 51.9186 81.0986 51.9186Z" fill="#AB3130"/>
<path d="M10.4009 264.198C9.07829 264.198 7.83578 263.937 6.67344 263.416C5.53114 262.895 4.5191 262.184 3.63732 261.282C2.75555 260.38 2.06416 259.338 1.56315 258.156C1.08218 256.953 0.841693 255.681 0.841693 254.338C0.841693 252.915 1.0922 251.582 1.59321 250.34C2.09422 249.077 2.79563 247.975 3.69745 247.033C4.59926 246.071 5.65138 245.32 6.8538 244.779C8.05623 244.237 9.34883 243.967 10.7316 243.967C12.9962 243.967 15.3609 244.237 17.8259 244.779C17.866 244.779 17.896 244.979 17.9161 245.38C17.9562 245.761 17.9862 246.221 18.0063 246.763C18.0263 247.284 18.0464 247.775 18.0664 248.236C18.0864 248.696 18.0965 249.007 18.0965 249.167C18.0965 249.468 17.856 249.618 17.375 249.618C17.2347 249.618 17.0944 249.578 16.9542 249.498C16.874 249.137 16.7237 248.767 16.5032 248.386C16.3028 248.005 15.9922 247.574 15.5714 247.093C15.1505 246.612 14.5293 246.221 13.7076 245.921C12.886 245.6 11.934 245.44 10.8519 245.44C9.54923 245.44 8.42697 245.821 7.48508 246.582C6.56322 247.324 5.85179 248.316 5.35078 249.558C4.86981 250.801 4.62932 252.183 4.62932 253.707C4.62932 255.39 4.89987 256.913 5.44096 258.276C6.00209 259.639 6.81372 260.731 7.87586 261.552C8.938 262.354 10.2106 262.755 11.6936 262.755C13.4571 262.755 14.87 262.194 15.9321 261.071C16.2527 260.731 16.4932 260.35 16.6535 259.929C16.8339 259.488 16.9742 259.107 17.0744 258.787C17.1746 258.446 17.2648 258.276 17.3449 258.276C18.0464 258.276 18.4371 258.366 18.5173 258.546C18.5173 258.667 18.4672 258.957 18.367 259.418C18.2868 259.859 18.1866 260.35 18.0664 260.891C17.9461 261.412 17.8159 261.873 17.6756 262.274C17.5554 262.675 17.4552 262.895 17.375 262.935C15.6315 263.777 13.3068 264.198 10.4009 264.198ZM20.2007 264.108C20.1205 264.027 20.0804 263.887 20.0804 263.687C20.0804 263.306 20.1205 263.116 20.2007 263.116C20.361 263.116 20.5915 263.085 20.8921 263.025C21.1927 262.965 21.4733 262.885 21.7338 262.785C21.9943 262.665 22.1446 262.554 22.1847 262.454C22.2648 262.134 22.325 261.763 22.3651 261.342C22.4051 260.921 22.4252 260.45 22.4252 259.929V248.326C22.4252 247.163 22.345 246.322 22.1847 245.801C22.1446 245.68 21.9943 245.57 21.7338 245.47C21.4933 245.37 21.2227 245.29 20.9221 245.229C20.6416 245.149 20.4211 245.109 20.2608 245.109C20.1807 245.109 20.1406 244.959 20.1406 244.658C20.1406 244.338 20.1606 244.157 20.2007 244.117L21.8841 244.207C22.8861 244.268 23.6577 244.298 24.1987 244.298L28.0465 244.117C28.1066 244.298 28.1367 244.458 28.1367 244.598C28.1367 244.939 28.0966 245.109 28.0164 245.109C27.8962 245.109 27.6858 245.149 27.3852 245.229C27.0846 245.31 26.794 245.4 26.5134 245.5C26.2529 245.6 26.1026 245.7 26.0625 245.801C25.9823 246.121 25.9222 246.502 25.8821 246.943C25.8421 247.364 25.822 247.865 25.822 248.446V252.835L25.8821 252.925C26.8641 252.945 27.6958 252.965 28.3772 252.985C29.0585 252.985 29.5896 252.985 29.9704 252.985C30.3912 252.985 30.9323 252.985 31.5936 252.985C32.255 252.965 33.0365 252.945 33.9384 252.925C33.9784 252.885 33.9985 252.845 33.9985 252.805V248.326C33.9985 247.163 33.9183 246.322 33.758 245.801C33.7179 245.68 33.5676 245.57 33.3071 245.47C33.0666 245.37 32.7961 245.29 32.4955 245.229C32.2149 245.149 31.9944 245.109 31.8341 245.109C31.754 245.109 31.7139 244.959 31.7139 244.658C31.7139 244.338 31.7339 244.157 31.774 244.117L33.4574 244.207C34.4594 244.268 35.231 244.298 35.7721 244.298L39.6198 244.117C39.6799 244.298 39.71 244.458 39.71 244.598C39.71 244.939 39.6699 245.109 39.5897 245.109C39.4695 245.109 39.2591 245.149 38.9585 245.229C38.6579 245.31 38.3673 245.4 38.0867 245.5C37.8262 245.6 37.6759 245.7 37.6358 245.801C37.5557 246.121 37.4955 246.502 37.4554 246.943C37.4154 247.364 37.3953 247.865 37.3953 248.446V259.749C37.3953 260.851 37.4855 261.753 37.6659 262.454C37.706 262.534 37.8462 262.635 38.0867 262.755C38.3472 262.855 38.6178 262.945 38.8984 263.025C39.199 263.085 39.4094 263.116 39.5296 263.116C39.6098 263.116 39.6499 263.306 39.6499 263.687C39.6499 263.807 39.6298 263.947 39.5897 264.108L35.7721 263.927C35.0706 263.927 34.3492 263.947 33.6077 263.987C32.8662 264.027 32.255 264.067 31.774 264.108C31.6938 264.027 31.6538 263.887 31.6538 263.687C31.6538 263.306 31.6938 263.116 31.774 263.116C31.9343 263.116 32.1648 263.085 32.4654 263.025C32.766 262.965 33.0466 262.885 33.3071 262.785C33.5676 262.665 33.7179 262.554 33.758 262.454C33.8382 262.134 33.8983 261.763 33.9384 261.342C33.9784 260.921 33.9985 260.45 33.9985 259.929V254.759L33.9384 254.638C32.9965 254.618 32.1949 254.608 31.5335 254.608C30.8722 254.588 30.3511 254.578 29.9704 254.578C27.2048 254.598 25.822 254.648 25.822 254.729V259.749C25.822 260.851 25.9122 261.753 26.0926 262.454C26.1326 262.534 26.2729 262.635 26.5134 262.755C26.7739 262.855 27.0445 262.945 27.325 263.025C27.6256 263.085 27.8361 263.116 27.9563 263.116C28.0365 263.116 28.0766 263.306 28.0766 263.687C28.0766 263.807 28.0565 263.947 28.0164 264.108L24.1987 263.927C23.4973 263.927 22.7759 263.947 22.0344 263.987C21.2929 264.027 20.6817 264.067 20.2007 264.108ZM41.4836 264.108C41.4034 264.027 41.3633 263.887 41.3633 263.687C41.3633 263.306 41.4034 263.116 41.4836 263.116C41.6439 263.116 41.8743 263.085 42.175 263.025C42.4756 262.965 42.7561 262.885 43.0167 262.785C43.2772 262.665 43.4275 262.554 43.4676 262.454C43.5477 262.134 43.6078 261.763 43.6479 261.342C43.688 260.921 43.708 260.45 43.708 259.929V248.326C43.708 247.163 43.6279 246.322 43.4676 245.801C43.4275 245.68 43.2772 245.57 43.0167 245.47C42.7762 245.37 42.5056 245.29 42.205 245.229C41.9244 245.149 41.704 245.109 41.5437 245.109C41.4635 245.109 41.4234 244.959 41.4234 244.658C41.4234 244.338 41.4435 244.157 41.4836 244.117L43.167 244.207C43.668 244.227 44.1089 244.258 44.4896 244.298C44.8904 244.318 45.2211 244.318 45.4816 244.298L49.3294 244.117C49.3895 244.298 49.4195 244.458 49.4195 244.598C49.4195 244.939 49.3795 245.109 49.2993 245.109C49.1791 245.109 48.9686 245.149 48.668 245.229C48.3674 245.31 48.0768 245.4 47.7963 245.5C47.5358 245.6 47.3855 245.7 47.3454 245.801C47.2652 246.121 47.2051 246.502 47.165 246.943C47.1249 247.364 47.1049 247.865 47.1049 248.446V259.749C47.1049 260.851 47.1951 261.753 47.3754 262.454C47.4155 262.534 47.5558 262.635 47.7963 262.755C48.0568 262.855 48.3273 262.945 48.6079 263.025C48.9085 263.085 49.1189 263.116 49.2392 263.116C49.3193 263.116 49.3594 263.306 49.3594 263.687C49.3594 263.807 49.3394 263.947 49.2993 264.108L45.4816 263.927C44.7802 263.887 44.0587 263.897 43.3173 263.957C42.5758 264.017 41.9645 264.067 41.4836 264.108ZM60.6021 264.198C59.2794 264.198 58.0369 263.937 56.8746 263.416C55.7323 262.895 54.7202 262.184 53.8385 261.282C52.9567 260.38 52.2653 259.338 51.7643 258.156C51.2833 256.953 51.0428 255.681 51.0428 254.338C51.0428 252.915 51.2933 251.582 51.7943 250.34C52.2953 249.077 52.9968 247.975 53.8986 247.033C54.8004 246.071 55.8525 245.32 57.0549 244.779C58.2574 244.237 59.55 243.967 60.9327 243.967C63.1973 243.967 65.5621 244.237 68.027 244.779C68.0671 244.779 68.0972 244.979 68.1172 245.38C68.1573 245.761 68.1874 246.221 68.2074 246.763C68.2274 247.284 68.2475 247.775 68.2675 248.236C68.2876 248.696 68.2976 249.007 68.2976 249.167C68.2976 249.468 68.0571 249.618 67.5761 249.618C67.4358 249.618 67.2956 249.578 67.1553 249.498C67.0751 249.137 66.9248 248.767 66.7044 248.386C66.504 248.005 66.1933 247.574 65.7725 247.093C65.3516 246.612 64.7304 246.221 63.9087 245.921C63.0871 245.6 62.1352 245.44 61.053 245.44C59.7504 245.44 58.6281 245.821 57.6862 246.582C56.7643 247.324 56.0529 248.316 55.5519 249.558C55.0709 250.801 54.8304 252.183 54.8304 253.707C54.8304 255.39 55.101 256.913 55.6421 258.276C56.2032 259.639 57.0148 260.731 58.077 261.552C59.1391 262.354 60.4117 262.755 61.8947 262.755C63.6582 262.755 65.0711 262.194 66.1332 261.071C66.4539 260.731 66.6943 260.35 66.8547 259.929C67.035 259.488 67.1753 259.107 67.2755 258.787C67.3757 258.446 67.4659 258.276 67.5461 258.276C68.2475 258.276 68.6383 258.366 68.7184 258.546C68.7184 258.667 68.6683 258.957 68.5681 259.418C68.488 259.859 68.3878 260.35 68.2675 260.891C68.1473 261.412 68.017 261.873 67.8767 262.274C67.7565 262.675 67.6563 262.895 67.5761 262.935C65.8326 263.777 63.5079 264.198 60.6021 264.198ZM79.8108 264.198C78.4881 264.198 77.2456 263.937 76.0833 263.416C74.941 262.895 73.9289 262.184 73.0471 261.282C72.1654 260.38 71.474 259.338 70.973 258.156C70.492 256.953 70.2515 255.681 70.2515 254.338C70.2515 252.915 70.502 251.582 71.003 250.34C71.504 249.077 72.2054 247.975 73.1073 247.033C74.0091 246.071 75.0612 245.32 76.2636 244.779C77.466 244.237 78.7587 243.967 80.1414 243.967C82.406 243.967 84.7708 244.237 87.2357 244.779C87.2758 244.779 87.3059 244.979 87.3259 245.38C87.366 245.761 87.396 246.221 87.4161 246.763C87.4361 247.284 87.4562 247.775 87.4762 248.236C87.4963 248.696 87.5063 249.007 87.5063 249.167C87.5063 249.468 87.2658 249.618 86.7848 249.618C86.6445 249.618 86.5043 249.578 86.364 249.498C86.2838 249.137 86.1335 248.767 85.9131 248.386C85.7127 248.005 85.402 247.574 84.9812 247.093C84.5603 246.612 83.9391 246.221 83.1174 245.921C82.2958 245.6 81.3439 245.44 80.2617 245.44C78.9591 245.44 77.8368 245.821 76.8949 246.582C75.973 247.324 75.2616 248.316 74.7606 249.558C74.2796 250.801 74.0391 252.183 74.0391 253.707C74.0391 255.39 74.3097 256.913 74.8508 258.276C75.4119 259.639 76.2235 260.731 77.2857 261.552C78.3478 262.354 79.6204 262.755 81.1034 262.755C82.8669 262.755 84.2798 262.194 85.3419 261.071C85.6626 260.731 85.903 260.35 86.0634 259.929C86.2437 259.488 86.384 259.107 86.4842 258.787C86.5844 258.446 86.6746 258.276 86.7548 258.276C87.4562 258.276 87.847 258.366 87.9271 258.546C87.9271 258.667 87.877 258.957 87.7768 259.418C87.6967 259.859 87.5965 260.35 87.4762 260.891C87.356 261.412 87.2257 261.873 87.0854 262.274C86.9652 262.675 86.865 262.895 86.7848 262.935C85.0413 263.777 82.7166 264.198 79.8108 264.198ZM89.6105 264.108C89.5303 264.027 89.4903 263.887 89.4903 263.687C89.4903 263.306 89.5303 263.116 89.6105 263.116C89.7708 263.116 90.0013 263.085 90.3019 263.025C90.6025 262.965 90.8831 262.885 91.1436 262.785C91.4041 262.665 91.5544 262.554 91.5945 262.454C91.6747 262.134 91.7348 261.763 91.7749 261.342C91.815 260.921 91.835 260.45 91.835 259.929V248.326C91.835 247.163 91.7548 246.322 91.5945 245.801C91.5544 245.68 91.4041 245.57 91.1436 245.47C90.9031 245.37 90.6326 245.29 90.332 245.229C90.0514 245.149 89.831 245.109 89.6706 245.109C89.5905 245.109 89.5504 244.959 89.5504 244.658C89.5504 244.338 89.5704 244.157 89.6105 244.117L91.2939 244.207C92.2959 244.268 93.0675 244.298 93.6086 244.298L97.4563 244.117C97.5164 244.298 97.5465 244.458 97.5465 244.598C97.5465 244.939 97.5064 245.109 97.4263 245.109C97.306 245.109 97.0956 245.149 96.795 245.229C96.4944 245.31 96.2038 245.4 95.9232 245.5C95.6627 245.6 95.5124 245.7 95.4723 245.801C95.3922 246.121 95.332 246.502 95.292 246.943C95.2519 247.364 95.2318 247.865 95.2318 248.446V252.835L95.292 252.925C96.2739 252.945 97.1056 252.965 97.787 252.985C98.4684 252.985 98.9994 252.985 99.3802 252.985C99.801 252.985 100.342 252.985 101.003 252.985C101.665 252.965 102.446 252.945 103.348 252.925C103.388 252.885 103.408 252.845 103.408 252.805V248.326C103.408 247.163 103.328 246.322 103.168 245.801C103.128 245.68 102.977 245.57 102.717 245.47C102.476 245.37 102.206 245.29 101.905 245.229C101.625 245.149 101.404 245.109 101.244 245.109C101.164 245.109 101.124 244.959 101.124 244.658C101.124 244.338 101.144 244.157 101.184 244.117L102.867 244.207C103.869 244.268 104.641 244.298 105.182 244.298L109.03 244.117C109.09 244.298 109.12 244.458 109.12 244.598C109.12 244.939 109.08 245.109 109 245.109C108.879 245.109 108.669 245.149 108.368 245.229C108.068 245.31 107.777 245.4 107.497 245.5C107.236 245.6 107.086 245.7 107.046 245.801C106.965 246.121 106.905 246.502 106.865 246.943C106.825 247.364 106.805 247.865 106.805 248.446V259.749C106.805 260.851 106.895 261.753 107.076 262.454C107.116 262.534 107.256 262.635 107.497 262.755C107.757 262.855 108.028 262.945 108.308 263.025C108.609 263.085 108.819 263.116 108.939 263.116C109.02 263.116 109.06 263.306 109.06 263.687C109.06 263.807 109.04 263.947 109 264.108L105.182 263.927C104.48 263.927 103.759 263.947 103.018 263.987C102.276 264.027 101.665 264.067 101.184 264.108C101.104 264.027 101.064 263.887 101.064 263.687C101.064 263.306 101.104 263.116 101.184 263.116C101.344 263.116 101.575 263.085 101.875 263.025C102.176 262.965 102.456 262.885 102.717 262.785C102.977 262.665 103.128 262.554 103.168 262.454C103.248 262.134 103.308 261.763 103.348 261.342C103.388 260.921 103.408 260.45 103.408 259.929V254.759L103.348 254.638C102.406 254.618 101.605 254.608 100.943 254.608C100.282 254.588 99.761 254.578 99.3802 254.578C96.6146 254.598 95.2318 254.648 95.2318 254.729V259.749C95.2318 260.851 95.322 261.753 95.5024 262.454C95.5425 262.534 95.6827 262.635 95.9232 262.755C96.1838 262.855 96.4543 262.945 96.7349 263.025C97.0355 263.085 97.2459 263.116 97.3661 263.116C97.4463 263.116 97.4864 263.306 97.4864 263.687C97.4864 263.807 97.4663 263.947 97.4263 264.108L93.6086 263.927C92.9072 263.927 92.1857 263.947 91.4442 263.987C90.7027 264.027 90.0915 264.067 89.6105 264.108ZM110.893 264.108C110.813 264.027 110.773 263.887 110.773 263.687C110.773 263.306 110.813 263.116 110.893 263.116C111.054 263.116 111.284 263.085 111.585 263.025C111.885 262.965 112.166 262.885 112.426 262.785C112.687 262.665 112.837 262.554 112.877 262.454C112.958 262.134 113.018 261.763 113.058 261.342C113.098 260.921 113.118 260.45 113.118 259.929V248.326C113.118 247.163 113.038 246.322 112.877 245.801C112.837 245.68 112.687 245.57 112.426 245.47C112.186 245.37 111.915 245.29 111.615 245.229C111.334 245.149 111.114 245.109 110.953 245.109C110.873 245.109 110.833 244.959 110.833 244.658C110.833 244.338 110.853 244.157 110.893 244.117L112.577 244.207C113.078 244.227 113.519 244.258 113.899 244.298C114.3 244.318 114.631 244.318 114.891 244.298L118.739 244.117C118.799 244.298 118.829 244.458 118.829 244.598C118.829 244.939 118.789 245.109 118.709 245.109C118.589 245.109 118.378 245.149 118.078 245.229C117.777 245.31 117.487 245.4 117.206 245.5C116.946 245.6 116.795 245.7 116.755 245.801C116.675 246.121 116.615 246.502 116.575 246.943C116.535 247.364 116.515 247.865 116.515 248.446V259.749C116.515 260.851 116.605 261.753 116.785 262.454C116.825 262.534 116.966 262.635 117.206 262.755C117.467 262.855 117.737 262.945 118.018 263.025C118.318 263.085 118.529 263.116 118.649 263.116C118.729 263.116 118.769 263.306 118.769 263.687C118.769 263.807 118.749 263.947 118.709 264.108L114.891 263.927C114.19 263.887 113.469 263.897 112.727 263.957C111.986 264.017 111.374 264.067 110.893 264.108ZM130.012 264.198C128.689 264.198 127.447 263.937 126.284 263.416C125.142 262.895 124.13 262.184 123.248 261.282C122.366 260.38 121.675 259.338 121.174 258.156C120.693 256.953 120.453 255.681 120.453 254.338C120.453 252.915 120.703 251.582 121.204 250.34C121.705 249.077 122.407 247.975 123.308 247.033C124.21 246.071 125.262 245.32 126.465 244.779C127.667 244.237 128.96 243.967 130.343 243.967C132.607 243.967 134.972 244.237 137.437 244.779C137.477 244.779 137.507 244.979 137.527 245.38C137.567 245.761 137.597 246.221 137.617 246.763C137.637 247.284 137.657 247.775 137.677 248.236C137.697 248.696 137.707 249.007 137.707 249.167C137.707 249.468 137.467 249.618 136.986 249.618C136.846 249.618 136.705 249.578 136.565 249.498C136.485 249.137 136.335 248.767 136.114 248.386C135.914 248.005 135.603 247.574 135.182 247.093C134.761 246.612 134.14 246.221 133.319 245.921C132.497 245.6 131.545 245.44 130.463 245.44C129.16 245.44 128.038 245.821 127.096 246.582C126.174 247.324 125.463 248.316 124.962 249.558C124.481 250.801 124.24 252.183 124.24 253.707C124.24 255.39 124.511 256.913 125.052 258.276C125.613 259.639 126.425 260.731 127.487 261.552C128.549 262.354 129.822 262.755 131.304 262.755C133.068 262.755 134.481 262.194 135.543 261.071C135.864 260.731 136.104 260.35 136.264 259.929C136.445 259.488 136.585 259.107 136.685 258.787C136.786 258.446 136.876 258.276 136.956 258.276C137.657 258.276 138.048 258.366 138.128 258.546C138.128 258.667 138.078 258.957 137.978 259.418C137.898 259.859 137.798 260.35 137.677 260.891C137.557 261.412 137.427 261.873 137.287 262.274C137.166 262.675 137.066 262.895 136.986 262.935C135.242 263.777 132.918 264.198 130.012 264.198Z" fill="#AB3130"/>
</svg>
